<mxfile host="app.diagrams.net" modified="2023-05-29T17:26:57.366Z" agent="Mozilla/5.0 (Macintosh; Intel Mac OS X 10_15_7) AppleWebKit/537.36 (KHTML, like Gecko) Chrome/112.0.0.0 Safari/537.36" version="21.3.5" etag="Td8gtwd68AuCwAqg0KAV" type="github">
  <diagram name="Page-1" id="Fg8SFxinDTXK0HUgEQ7M">
    <mxGraphModel>
      <root>
        <mxCell id="0" />
        <mxCell id="1" parent="0" />
      </root>
    </mxGraphModel>
  </diagram>
</mxfile>
